<?xml version="1.0" encoding="UTF-8"?>
<svg width="400px" height="400px" viewBox="0 0 400 400" version="1.1" xmlns="http://www.w3.org/2000/svg">
    <g stroke="none" stroke-width="1" fill="none" fill-rule="evenodd">
        <path d="M378.68,36.11L220.72,158.85L242.88,97.43L378.68,36.11Z" fill="#E17726"/>
        <path d="M21.32,36.11L178.17,160L157.12,97.43L21.32,36.11Z" fill="#E27625"/>
        <path d="M340.42,288.06L304.22,343.42L375.53,363.86L393.89,289.45L340.42,288.06Z" fill="#E27625"/>
        <path d="M6.11,289.45L24.37,363.86L95.68,343.42L59.58,288.06L6.11,289.45Z" fill="#E27625"/>
        <path d="M93.47,183.44L74.6,211.87L145,214.35L143.32,138.34L93.47,183.44Z" fill="#E27625"/>
        <path d="M306.53,183.44L255.88,137.24L255,214.35L325.4,211.87L306.53,183.44Z" fill="#E27625"/>
        <path d="M95.68,343.42L141.62,321.59L101.81,290.15L95.68,343.42Z" fill="#E27625"/>
        <path d="M258.38,321.59L304.22,343.42L298.19,290.15L258.38,321.59Z" fill="#E27625"/>
    </g>
</svg>
