<?xml version="1.0" encoding="UTF-8"?>
<svg width="400px" height="400px" viewBox="0 0 400 400" version="1.1" xmlns="http://www.w3.org/2000/svg">
    <g stroke="none" stroke-width="1" fill="none" fill-rule="evenodd">
        <path d="M200,20C200,20 58.82,91.64 58.82,178.76V298.79C58.82,298.79 58.82,337.21 200,380C341.18,337.21 341.18,298.79 341.18,298.79V178.76C341.18,91.64 200,20 200,20Z" fill="#3375BB"/>
        <path d="M200,105C154.77,105 118.18,141.59 118.18,186.82C118.18,232.05 154.77,268.64 200,268.64C245.23,268.64 281.82,232.05 281.82,186.82C281.82,141.59 245.23,105 200,105ZM200,238.64C171.36,238.64 148.18,215.45 148.18,186.82C148.18,158.18 171.36,135 200,135C228.64,135 251.82,158.18 251.82,186.82C251.82,215.45 228.64,238.64 200,238.64Z" fill="#FFFFFF"/>
    </g>
</svg>
